# xmcd
#
# Track frame offsets: 
#        150
#        8162
#        22837
#        35657
#        49342
#        64305
#        78725
#        92570
#        104872
#
# Disc length: 1546 seconds
#
# Revision: 0
# Processed by: cddbd v1.4PL0 Copyright (c) Steve Scherf et al.
# Submitted via: ExactAudioCopy v0.90b3
#
DISCID=75060809
DTITLE=Jeannie C. Riley - Here's Jeannie C.
DYEAR=1900
DGENRE=Country
TTITLE0=Blue Moon Of Kentucky
TTITLE1=Here's To The Cowboys
TTITLE2=Free
TTITLE3=Rockin' Pneumonia and The Boggie Woogie Flu
TTITLE4=Tennes-See Me
TTITLE5=Just Comin' Down With Love
TTITLE6=Words
TTITLE7=Hang Up Your Rhinestone Suit
TTITLE8=Silver Eagle Breakdown
EXTD=
EXTT0=
EXTT1=
EXTT2=
EXTT3=
EXTT4=
EXTT5=
EXTT6=
EXTT7=
EXTT8=
PLAYORDER=
